# xmcd
#
# Track frame offsets: 
#        150
#        15142
#        31425
#        47640
#        65937
#        85922
#        98795
#        115180
#        130747
#        150830
#
# Disc length: 2333 seconds
#
# Revision: 2
# Processed by: cddbd v1.5PL3 Copyright (c) Steve Scherf et al.
# Submitted via: ExactAudioCopy v0.95a4
#
DISCID=71091b0a
DTITLE=Mark Collie - Unleashed
DYEAR=1994
DGENRE=Country
TTITLE0=Hard Lovin' Woman
TTITLE1=It Is No Secret
TTITLE2=All I Want Is You
TTITLE3=Waiting
TTITLE4=Ring Of Fire
TTITLE5=Rainy Day Woman
TTITLE6=When You Belonged To Me
TTITLE7=God Didn't Make Me That Strong
TTITLE8=Lonely Streak
TTITLE9=Unleashed
EXTD=
EXTT0=
EXTT1=
EXTT2=
EXTT3=
EXTT4=
EXTT5=
EXTT6=
EXTT7=
EXTT8=
EXTT9=
PLAYORDER=
